<?xml version="1.0" standalone="no"?>
<!DOCTYPE svg PUBLIC "-//W3C//DTD SVG 20010904//EN"
 "http://www.w3.org/TR/2001/REC-SVG-20010904/DTD/svg10.dtd">
<svg version="1.0" xmlns="http://www.w3.org/2000/svg"
 width="300.000000pt" height="300.000000pt" viewBox="0 0 300.000000 300.000000"
 preserveAspectRatio="xMidYMid meet">
<metadata>
Created by potrace 1.11, written by Peter Selinger 2001-2013
</metadata>
<g transform="translate(0.000000,300.000000) scale(0.100000,-0.100000)"
fill="#000000" stroke="none">
<path d="M0 1500 l0 -1500 1500 0 1500 0 0 1500 0 1500 -1500 0 -1500 0 0
-1500z m2318 620 l42 -13 0 -83 0 -83 -32 19 c-76 44 -258 65 -349 40 -124
-34 -179 -141 -128 -246 26 -55 61 -81 232 -171 148 -77 185 -102 244 -161
111 -111 113 -311 2 -421 -115 -116 -386 -145 -606 -65 l-43 16 0 83 0 84 64
-34 c177 -92 416 -83 488 18 15 20 23 50 26 88 4 49 0 65 -22 103 -32 54 -69
80 -247 175 -183 97 -239 142 -279 225 -30 61 -32 72 -28 140 11 170 143 286
348 304 90 8 229 0 288 -18z m-1363 -4 c72 -3 123 -12 182 -30 244 -78 357
-256 356 -556 -1 -106 -5 -137 -27 -206 -62 -192 -209 -332 -411 -389 -46 -14
-115 -19 -297 -22 l-238 -5 0 610 0 610 168 -4 c92 -2 212 -6 267 -8z"/>
<path d="M660 1514 l0 -476 158 4 c231 8 332 46 428 165 77 94 111 242 93 403
-12 109 -41 180 -99 243 -96 105 -194 137 -427 137 l-153 0 0 -476z"/>
</g>
</svg>
