<?xml version="1.0" standalone="no"?>
<!DOCTYPE svg PUBLIC "-//W3C//DTD SVG 20010904//EN"
 "http://www.w3.org/TR/2001/REC-SVG-20010904/DTD/svg10.dtd">
<svg version="1.0" xmlns="http://www.w3.org/2000/svg"
 width="260.000000pt" height="260.000000pt" viewBox="0 0 260.000000 260.000000"
 preserveAspectRatio="xMidYMid meet">
<metadata>
Created by potrace 1.11, written by Peter Selinger 2001-2013
</metadata>
<g transform="translate(0.000000,260.000000) scale(0.100000,-0.100000)"
fill="#000000" stroke="none">
<path d="M0 1300 l0 -1300 1300 0 1300 0 0 1300 0 1300 -1300 0 -1300 0 0
-1300z m2153 607 l37 -16 0 -80 0 -80 -42 24 c-58 32 -126 46 -225 46 -100 1
-168 -20 -212 -64 -40 -38 -51 -65 -51 -119 0 -90 43 -136 214 -224 158 -82
226 -126 283 -186 67 -72 87 -126 81 -225 -5 -90 -27 -139 -85 -195 -113 -109
-369 -139 -580 -67 l-63 21 0 83 0 83 68 -34 c97 -49 179 -67 282 -62 150 7
220 58 228 167 8 114 -35 159 -264 279 -171 90 -240 142 -279 214 -27 47 -30
62 -30 138 0 69 5 93 23 128 46 87 132 149 247 179 72 18 317 12 368 -10z
m-1218 -21 c264 -76 386 -254 386 -561 0 -135 -15 -205 -63 -304 -45 -93 -151
-197 -248 -244 -128 -63 -169 -70 -427 -74 l-233 -5 0 607 0 607 263 -5 c208
-3 274 -8 322 -21z"/>
<path d="M583 1782 l-93 -3 0 -476 0 -475 163 5 c108 3 178 10 210 21 208 68
311 223 310 466 0 158 -36 264 -116 341 -97 95 -230 129 -474 121z"/>
</g>
</svg>
